<svg width="303" height="325" viewBox="0 0 303 325" fill="none" xmlns="http://www.w3.org/2000/svg">
<rect width="303" height="325" fill="#161616"/>
<path d="M80.2578 177C79.9278 177 79.7628 176.835 79.7628 176.505V147.21C79.7628 146.88 79.9278 146.715 80.2578 146.715H95.0178C95.3178 146.715 95.4978 146.745 95.5578 146.805C95.6178 146.835 95.6478 147 95.6478 147.3V150.045C95.6478 150.375 95.6028 150.57 95.5128 150.63C95.4528 150.69 95.2878 150.72 95.0178 150.72H85.2528C85.0728 150.72 84.9678 150.735 84.9378 150.765C84.9078 150.795 84.8928 150.885 84.8928 151.035V159.405C84.8928 159.555 84.9078 159.66 84.9378 159.72C84.9978 159.75 85.0878 159.765 85.2078 159.765H92.8128C93.1428 159.765 93.3378 159.81 93.3978 159.9C93.4578 159.96 93.4878 160.17 93.4878 160.53V163.005C93.4878 163.335 93.4578 163.545 93.3978 163.635C93.3378 163.695 93.1428 163.725 92.8128 163.725H85.2078C85.0578 163.725 84.9678 163.74 84.9378 163.77C84.9078 163.8 84.8928 163.89 84.8928 164.04V176.28C84.8928 176.61 84.8478 176.82 84.7578 176.91C84.6978 176.97 84.4878 177 84.1278 177H80.2578ZM105.837 175.515C105.837 176.235 105.672 176.775 105.342 177.135C105.012 177.495 104.307 177.675 103.227 177.675C102.297 177.675 101.622 177.495 101.202 177.135C100.812 176.775 100.617 176.235 100.617 175.515C100.617 174.825 100.812 174.3 101.202 173.94C101.622 173.58 102.297 173.4 103.227 173.4C104.307 173.4 105.012 173.58 105.342 173.94C105.672 174.3 105.837 174.825 105.837 175.515ZM112.009 161.97C112.009 158.67 112.354 155.88 113.044 153.6C113.764 151.29 115.009 149.535 116.779 148.335C118.549 147.135 121.039 146.535 124.249 146.535C126.739 146.535 128.794 146.88 130.414 147.57C132.034 148.23 133.294 149.22 134.194 150.54C135.094 151.83 135.709 153.435 136.039 155.355C136.399 157.275 136.579 159.48 136.579 161.97C136.579 164.46 136.399 166.665 136.039 168.585C135.709 170.475 135.094 172.08 134.194 173.4C133.294 174.69 132.034 175.68 130.414 176.37C128.794 177.03 126.739 177.36 124.249 177.36C121.039 177.36 118.549 176.76 116.779 175.56C115.009 174.36 113.764 172.62 113.044 170.34C112.354 168.06 112.009 165.27 112.009 161.97ZM117.319 161.97C117.319 164.91 117.559 167.19 118.039 168.81C118.549 170.4 119.299 171.525 120.289 172.185C121.309 172.815 122.614 173.13 124.204 173.13C125.794 173.13 127.099 172.815 128.119 172.185C129.169 171.555 129.949 170.43 130.459 168.81C130.999 167.19 131.269 164.91 131.269 161.97C131.269 159 130.999 156.705 130.459 155.085C129.949 153.435 129.169 152.295 128.119 151.665C127.099 151.005 125.794 150.675 124.204 150.675C122.614 150.675 121.309 151.005 120.289 151.665C119.299 152.325 118.549 153.465 118.039 155.085C117.559 156.705 117.319 159 117.319 161.97ZM147.998 175.515C147.998 176.235 147.833 176.775 147.503 177.135C147.173 177.495 146.468 177.675 145.388 177.675C144.458 177.675 143.783 177.495 143.363 177.135C142.973 176.775 142.778 176.235 142.778 175.515C142.778 174.825 142.973 174.3 143.363 173.94C143.783 173.58 144.458 173.4 145.388 173.4C146.468 173.4 147.173 173.58 147.503 173.94C147.833 174.3 147.998 174.825 147.998 175.515ZM155.745 177C155.325 177 155.115 176.79 155.115 176.37C155.115 174.06 155.145 171.585 155.205 168.945C155.295 166.305 155.415 163.665 155.565 161.025C155.745 158.355 155.94 155.835 156.15 153.465C156.36 151.065 156.6 148.98 156.87 147.21C156.9 147.03 156.945 146.91 157.005 146.85C157.065 146.76 157.185 146.715 157.365 146.715H159.84C160.11 146.715 160.29 146.745 160.38 146.805C160.5 146.865 160.605 146.97 160.695 147.12L167.85 159.315C167.94 159.465 168.045 159.54 168.165 159.54C168.315 159.54 168.435 159.465 168.525 159.315L175.725 147.165C175.845 146.955 175.95 146.835 176.04 146.805C176.16 146.745 176.34 146.715 176.58 146.715H178.965C179.295 146.715 179.475 146.91 179.505 147.3C179.745 149.04 179.97 151.095 180.18 153.465C180.42 155.805 180.615 158.31 180.765 160.98C180.945 163.62 181.08 166.26 181.17 168.9C181.26 171.51 181.305 173.955 181.305 176.235C181.305 176.535 181.26 176.745 181.17 176.865C181.08 176.955 180.885 177 180.585 177H176.805C176.445 177 176.265 176.79 176.265 176.37C176.265 175.29 176.25 174.105 176.22 172.815C176.19 171.525 176.145 170.205 176.085 168.855C176.055 167.475 175.995 166.11 175.905 164.76C175.845 163.41 175.77 162.105 175.68 160.845C175.62 159.585 175.545 158.415 175.455 157.335C175.425 157.155 175.35 157.065 175.23 157.065C175.11 157.065 175.005 157.14 174.915 157.29L169.38 166.335C169.26 166.515 169.08 166.605 168.84 166.605H167.445C167.205 166.605 167.01 166.485 166.86 166.245L161.505 157.47C161.415 157.26 161.31 157.185 161.19 157.245C161.07 157.275 161.01 157.365 161.01 157.515C160.89 158.835 160.77 160.2 160.65 161.61C160.56 163.02 160.47 164.505 160.38 166.065C160.32 167.625 160.275 169.29 160.245 171.06C160.215 172.8 160.2 174.675 160.2 176.685C160.2 176.895 160.095 177 159.885 177H155.745ZM193.631 175.515C193.631 176.235 193.466 176.775 193.136 177.135C192.806 177.495 192.101 177.675 191.021 177.675C190.091 177.675 189.416 177.495 188.996 177.135C188.606 176.775 188.411 176.235 188.411 175.515C188.411 174.825 188.606 174.3 188.996 173.94C189.416 173.58 190.091 173.4 191.021 173.4C192.101 173.4 192.806 173.58 193.136 173.94C193.466 174.3 193.631 174.825 193.631 175.515ZM199.803 161.97C199.803 158.67 200.148 155.88 200.838 153.6C201.558 151.29 202.803 149.535 204.573 148.335C206.343 147.135 208.833 146.535 212.043 146.535C214.533 146.535 216.588 146.88 218.208 147.57C219.828 148.23 221.088 149.22 221.988 150.54C222.888 151.83 223.503 153.435 223.833 155.355C224.193 157.275 224.373 159.48 224.373 161.97C224.373 164.46 224.193 166.665 223.833 168.585C223.503 170.475 222.888 172.08 221.988 173.4C221.088 174.69 219.828 175.68 218.208 176.37C216.588 177.03 214.533 177.36 212.043 177.36C208.833 177.36 206.343 176.76 204.573 175.56C202.803 174.36 201.558 172.62 200.838 170.34C200.148 168.06 199.803 165.27 199.803 161.97ZM205.113 161.97C205.113 164.91 205.353 167.19 205.833 168.81C206.343 170.4 207.093 171.525 208.083 172.185C209.103 172.815 210.408 173.13 211.998 173.13C213.588 173.13 214.893 172.815 215.913 172.185C216.963 171.555 217.743 170.43 218.253 168.81C218.793 167.19 219.063 164.91 219.063 161.97C219.063 159 218.793 156.705 218.253 155.085C217.743 153.435 216.963 152.295 215.913 151.665C214.893 151.005 213.588 150.675 211.998 150.675C210.408 150.675 209.103 151.005 208.083 151.665C207.093 152.325 206.343 153.465 205.833 155.085C205.353 156.705 205.113 159 205.113 161.97Z" fill="white"/>
</svg>
