<svg width="303" height="325" viewBox="0 0 303 325" fill="none" xmlns="http://www.w3.org/2000/svg">
<path d="M0 0H303V325H0V0Z" fill="#212121"/>
<rect x="111.5" y="96.5" width="81" height="132" rx="8.5" stroke="#D9D9D9" stroke-width="3"/>
<rect x="119" y="106" width="67" height="36" rx="4" fill="#D9D9D9" stroke="#F2F2F2" stroke-width="2"/>
<rect x="119" y="157" width="13" height="13" rx="2" fill="#D9D9D9"/>
<rect x="136" y="157" width="13" height="13" rx="2" fill="#D9D9D9"/>
<rect x="119" y="177" width="13" height="13" rx="2" fill="#D9D9D9"/>
<rect x="172" y="157" width="13" height="13" rx="2" fill="#D9D9D9"/>
<rect x="172" y="177" width="13" height="13" rx="2" fill="#D9D9D9"/>
<rect x="136" y="177" width="13" height="13" rx="2" fill="#D9D9D9"/>
<rect x="154" y="177" width="13" height="13" rx="2" fill="#D9D9D9"/>
<rect x="155" y="200" width="30" height="13" rx="2" fill="#D9D9D9"/>
<rect x="119" y="200" width="13" height="13" rx="2" fill="#D9D9D9"/>
<rect x="137" y="200" width="13" height="13" rx="2" fill="#D9D9D9"/>
<rect x="154" y="157" width="13" height="13" rx="2" fill="#D9D9D9"/>
</svg>
