<svg width="303" height="325" viewBox="0 0 303 325" fill="none" xmlns="http://www.w3.org/2000/svg">
<rect width="303" height="325" fill="#D5D5D5"/>
<path d="M101.043 156.785H105.608C107.771 156.785 109.495 156.308 110.778 155.355C112.061 154.402 112.703 152.99 112.703 151.12C112.703 149.287 112.061 147.893 110.778 146.94C109.495 145.987 107.606 145.51 105.113 145.51C104.38 145.51 103.665 145.547 102.968 145.62C102.271 145.657 101.63 145.73 101.043 145.84V156.785ZM106.103 162.23H94.1129V143.365C94.1129 142.705 94.2963 142.192 94.6629 141.825C95.0663 141.458 95.5796 141.165 96.2029 140.945C97.3763 140.578 98.7513 140.303 100.328 140.12C101.941 139.937 103.573 139.845 105.223 139.845C110.063 139.845 113.675 140.853 116.058 142.87C118.478 144.85 119.688 147.582 119.688 151.065C119.688 153.265 119.12 155.208 117.983 156.895C116.883 158.582 115.325 159.902 113.308 160.855C111.291 161.772 108.89 162.23 106.103 162.23ZM105.168 160.47L111.108 158.765C112.025 159.975 112.96 161.203 113.913 162.45C114.903 163.66 115.838 164.852 116.718 166.025C117.635 167.162 118.441 168.207 119.138 169.16C119.871 170.113 120.44 170.902 120.843 171.525C120.586 172.442 120.091 173.157 119.358 173.67C118.661 174.183 117.891 174.44 117.048 174.44C115.948 174.44 115.086 174.202 114.463 173.725C113.876 173.212 113.308 172.533 112.758 171.69L105.168 160.47ZM94.1129 159.81H101.098V173.89C100.805 174 100.346 174.092 99.7229 174.165C99.1363 174.275 98.5129 174.33 97.8529 174.33C96.5329 174.33 95.5796 174.092 94.9929 173.615C94.4063 173.102 94.1129 172.258 94.1129 171.085V159.81ZM131.493 140.23C131.493 139.167 131.859 138.268 132.593 137.535C133.363 136.802 134.316 136.435 135.453 136.435C136.626 136.435 137.561 136.802 138.258 137.535C138.991 138.268 139.358 139.167 139.358 140.23C139.358 141.257 138.991 142.155 138.258 142.925C137.561 143.658 136.626 144.025 135.453 144.025C134.316 144.025 133.363 143.658 132.593 142.925C131.859 142.155 131.493 141.257 131.493 140.23ZM132.043 159.48H138.863V173.89C138.569 174 138.148 174.092 137.598 174.165C137.048 174.275 136.443 174.33 135.783 174.33C134.536 174.33 133.601 174.11 132.978 173.67C132.354 173.193 132.043 172.368 132.043 171.195V159.48ZM138.863 162.945H132.043V148.205C132.336 148.095 132.758 148.003 133.308 147.93C133.894 147.82 134.518 147.765 135.178 147.765C136.461 147.765 137.396 148.003 137.983 148.48C138.569 148.92 138.863 149.745 138.863 150.955V162.945ZM168.879 168.28V151.01H175.644V168.995C175.644 169.802 175.46 170.48 175.094 171.03C174.764 171.543 174.214 172.038 173.444 172.515C172.564 173.102 171.39 173.615 169.924 174.055C168.494 174.532 166.789 174.77 164.809 174.77C161.912 174.77 159.382 174.293 157.219 173.34C155.055 172.35 153.369 170.847 152.159 168.83C150.949 166.777 150.344 164.192 150.344 161.075C150.344 157.885 150.93 155.263 152.104 153.21C153.314 151.157 154.927 149.653 156.944 148.7C158.96 147.71 161.197 147.215 163.654 147.215C165.01 147.215 166.239 147.38 167.339 147.71C168.475 148.04 169.392 148.425 170.089 148.865V154.64C169.502 154.09 168.732 153.613 167.779 153.21C166.825 152.807 165.725 152.605 164.479 152.605C163.122 152.605 161.894 152.898 160.794 153.485C159.694 154.035 158.832 154.952 158.209 156.235C157.585 157.482 157.274 159.113 157.274 161.13C157.274 163.99 157.934 166.08 159.254 167.4C160.574 168.72 162.352 169.38 164.589 169.38C165.579 169.38 166.422 169.27 167.119 169.05C167.815 168.83 168.402 168.573 168.879 168.28ZM175.644 152.385L168.879 152.44V138.25C169.135 138.177 169.539 138.085 170.089 137.975C170.675 137.865 171.28 137.81 171.904 137.81C173.224 137.81 174.177 138.048 174.764 138.525C175.35 138.965 175.644 139.772 175.644 140.945V152.385ZM191.286 164.43L191.011 159.7L205.751 157.5C205.641 156.107 205.109 154.897 204.156 153.87C203.203 152.843 201.809 152.33 199.976 152.33C198.106 152.33 196.548 152.99 195.301 154.31C194.054 155.593 193.413 157.445 193.376 159.865L193.541 162.725C193.871 165.072 194.769 166.795 196.236 167.895C197.739 168.995 199.628 169.545 201.901 169.545C203.441 169.545 204.871 169.325 206.191 168.885C207.511 168.408 208.556 167.895 209.326 167.345C209.839 167.675 210.243 168.097 210.536 168.61C210.866 169.087 211.031 169.618 211.031 170.205C211.031 171.158 210.609 171.983 209.766 172.68C208.923 173.34 207.786 173.853 206.356 174.22C204.926 174.587 203.294 174.77 201.461 174.77C198.638 174.77 196.126 174.257 193.926 173.23C191.763 172.167 190.058 170.59 188.811 168.5C187.601 166.41 186.996 163.807 186.996 160.69C186.996 158.453 187.344 156.492 188.041 154.805C188.738 153.118 189.673 151.725 190.846 150.625C192.056 149.488 193.449 148.645 195.026 148.095C196.603 147.508 198.253 147.215 199.976 147.215C202.396 147.215 204.504 147.71 206.301 148.7C208.134 149.653 209.564 150.992 210.591 152.715C211.654 154.438 212.186 156.418 212.186 158.655C212.186 159.682 211.911 160.452 211.361 160.965C210.848 161.442 210.114 161.735 209.161 161.845L191.286 164.43Z" fill="black"/>
</svg>
