<svg width="303" height="325" viewBox="0 0 303 325" fill="none" xmlns="http://www.w3.org/2000/svg">
<rect width="303" height="325" fill="#2A6BCD"/>
<g filter="url(#filter0_dd_1_4)">
<path d="M94.7779 149.39C95.1079 149.24 95.6179 149.075 96.3079 148.895C97.0279 148.685 97.7479 148.58 98.4679 148.58C99.7279 148.58 100.778 148.775 101.618 149.165C102.458 149.525 102.968 150.065 103.148 150.785C103.478 152.015 103.778 153.17 104.048 154.25C104.348 155.3 104.633 156.32 104.903 157.31C105.173 158.27 105.428 159.23 105.668 160.19C105.938 161.15 106.193 162.155 106.433 163.205H106.658C106.928 161.375 107.168 159.635 107.378 157.985C107.588 156.305 107.783 154.67 107.963 153.08C108.143 151.46 108.323 149.87 108.503 148.31C108.683 146.72 108.863 145.115 109.043 143.495C110.153 142.865 111.338 142.55 112.598 142.55C113.708 142.55 114.668 142.79 115.478 143.27C116.288 143.75 116.693 144.56 116.693 145.7C116.693 146.36 116.618 147.305 116.468 148.535C116.348 149.735 116.168 151.085 115.928 152.585C115.718 154.085 115.463 155.66 115.163 157.31C114.863 158.96 114.548 160.535 114.218 162.035C113.888 163.535 113.543 164.9 113.183 166.13C112.853 167.33 112.538 168.26 112.238 168.92C111.788 169.34 111.053 169.685 110.033 169.955C109.013 170.225 107.963 170.36 106.883 170.36C105.473 170.36 104.273 170.18 103.283 169.82C102.323 169.43 101.738 168.89 101.528 168.2C101.138 167 100.718 165.575 100.268 163.925C99.8179 162.275 99.3379 160.46 98.8279 158.48C98.4079 160.43 97.9729 162.335 97.5229 164.195C97.0729 166.055 96.6679 167.63 96.3079 168.92C95.8579 169.34 95.1829 169.685 94.2829 169.955C93.3829 170.225 92.3929 170.36 91.3129 170.36C89.9629 170.36 88.7329 170.18 87.6229 169.82C86.5429 169.43 85.8379 168.89 85.5079 168.2C85.2379 167.66 84.9379 166.865 84.6079 165.815C84.3079 164.735 83.9929 163.52 83.6629 162.17C83.3329 160.79 82.9879 159.305 82.6279 157.715C82.2979 156.125 81.9829 154.535 81.6829 152.945C81.4129 151.355 81.1579 149.81 80.9179 148.31C80.6779 146.78 80.4979 145.385 80.3779 144.125C80.7979 143.735 81.3829 143.375 82.1329 143.045C82.8829 142.715 83.6929 142.55 84.5629 142.55C85.7029 142.55 86.6329 142.805 87.3529 143.315C88.1029 143.795 88.5679 144.62 88.7479 145.79C89.2279 148.85 89.6179 151.4 89.9179 153.44C90.2479 155.48 90.5029 157.16 90.6829 158.48C90.8929 159.77 91.0429 160.775 91.1329 161.495C91.2229 162.215 91.3129 162.785 91.4029 163.205H91.6279C91.8979 162.005 92.1529 160.895 92.3929 159.875C92.6329 158.855 92.8729 157.835 93.1129 156.815C93.3829 155.765 93.6529 154.655 93.9229 153.485C94.1929 152.285 94.4779 150.92 94.7779 149.39ZM132.051 165.14C132.561 165.14 133.116 165.095 133.716 165.005C134.346 164.885 134.811 164.735 135.111 164.555V160.955L131.871 161.225C131.031 161.285 130.341 161.465 129.801 161.765C129.261 162.065 128.991 162.515 128.991 163.115C128.991 163.715 129.216 164.21 129.666 164.6C130.146 164.96 130.941 165.14 132.051 165.14ZM131.691 147.455C133.311 147.455 134.781 147.62 136.101 147.95C137.451 148.28 138.591 148.79 139.521 149.48C140.481 150.14 141.216 150.995 141.726 152.045C142.236 153.065 142.491 154.28 142.491 155.69V165.77C142.491 166.55 142.266 167.195 141.816 167.705C141.396 168.185 140.886 168.605 140.286 168.965C138.336 170.135 135.591 170.72 132.051 170.72C130.461 170.72 129.021 170.57 127.731 170.27C126.471 169.97 125.376 169.52 124.446 168.92C123.546 168.32 122.841 167.555 122.331 166.625C121.851 165.695 121.611 164.615 121.611 163.385C121.611 161.315 122.226 159.725 123.456 158.615C124.686 157.505 126.591 156.815 129.171 156.545L135.066 155.915V155.6C135.066 154.73 134.676 154.115 133.896 153.755C133.146 153.365 132.051 153.17 130.611 153.17C129.471 153.17 128.361 153.29 127.281 153.53C126.201 153.77 125.226 154.07 124.356 154.43C123.966 154.16 123.636 153.755 123.366 153.215C123.096 152.645 122.961 152.06 122.961 151.46C122.961 150.68 123.141 150.065 123.501 149.615C123.891 149.135 124.476 148.73 125.256 148.4C126.126 148.07 127.146 147.83 128.316 147.68C129.516 147.53 130.641 147.455 131.691 147.455ZM167.868 163.475C167.868 165.755 167.013 167.54 165.303 168.83C163.593 170.12 161.073 170.765 157.743 170.765C156.483 170.765 155.313 170.675 154.233 170.495C153.153 170.315 152.223 170.045 151.443 169.685C150.693 169.295 150.093 168.815 149.643 168.245C149.223 167.675 149.013 167 149.013 166.22C149.013 165.5 149.163 164.9 149.463 164.42C149.763 163.91 150.123 163.49 150.543 163.16C151.413 163.64 152.403 164.075 153.513 164.465C154.653 164.825 155.958 165.005 157.428 165.005C158.358 165.005 159.063 164.87 159.543 164.6C160.053 164.33 160.308 163.97 160.308 163.52C160.308 163.1 160.128 162.77 159.768 162.53C159.408 162.29 158.808 162.095 157.968 161.945L156.618 161.675C154.008 161.165 152.058 160.37 150.768 159.29C149.508 158.18 148.878 156.605 148.878 154.565C148.878 153.455 149.118 152.45 149.598 151.55C150.078 150.65 150.753 149.9 151.623 149.3C152.493 148.7 153.528 148.235 154.728 147.905C155.958 147.575 157.308 147.41 158.778 147.41C159.888 147.41 160.923 147.5 161.883 147.68C162.873 147.83 163.728 148.07 164.448 148.4C165.168 148.73 165.738 149.165 166.158 149.705C166.578 150.215 166.788 150.83 166.788 151.55C166.788 152.24 166.653 152.84 166.383 153.35C166.143 153.83 165.828 154.235 165.438 154.565C165.198 154.415 164.838 154.265 164.358 154.115C163.878 153.935 163.353 153.785 162.783 153.665C162.213 153.515 161.628 153.395 161.028 153.305C160.458 153.215 159.933 153.17 159.453 153.17C158.463 153.17 157.698 153.29 157.158 153.53C156.618 153.74 156.348 154.085 156.348 154.565C156.348 154.895 156.498 155.165 156.798 155.375C157.098 155.585 157.668 155.78 158.508 155.96L159.903 156.275C162.783 156.935 164.823 157.85 166.023 159.02C167.253 160.16 167.868 161.645 167.868 163.475ZM195.417 169.955C195.117 170.045 194.637 170.135 193.977 170.225C193.347 170.315 192.687 170.36 191.997 170.36C191.337 170.36 190.737 170.315 190.197 170.225C189.687 170.135 189.252 169.955 188.892 169.685C188.532 169.415 188.247 169.055 188.037 168.605C187.857 168.125 187.767 167.51 187.767 166.76V156.77C187.767 155.54 187.452 154.685 186.822 154.205C186.222 153.695 185.472 153.44 184.572 153.44C183.972 153.44 183.402 153.515 182.862 153.665C182.322 153.815 181.887 153.995 181.557 154.205V169.955C181.257 170.045 180.777 170.135 180.117 170.225C179.487 170.315 178.827 170.36 178.137 170.36C177.477 170.36 176.877 170.315 176.337 170.225C175.827 170.135 175.392 169.955 175.032 169.685C174.672 169.415 174.387 169.055 174.177 168.605C173.997 168.125 173.907 167.51 173.907 166.76V140.66C174.237 140.6 174.717 140.525 175.347 140.435C176.007 140.315 176.667 140.255 177.327 140.255C177.987 140.255 178.572 140.3 179.082 140.39C179.622 140.48 180.072 140.66 180.432 140.93C180.792 141.2 181.062 141.575 181.242 142.055C181.452 142.505 181.557 143.105 181.557 143.855V148.265C181.947 148.115 182.532 147.95 183.312 147.77C184.122 147.56 185.007 147.455 185.967 147.455C188.937 147.455 191.247 148.205 192.897 149.705C194.577 151.175 195.417 153.38 195.417 156.32V169.955ZM213.955 170.72C212.185 170.72 210.535 170.48 209.005 170C207.505 169.49 206.185 168.74 205.045 167.75C203.935 166.76 203.05 165.515 202.39 164.015C201.76 162.515 201.445 160.76 201.445 158.75C201.445 156.77 201.76 155.075 202.39 153.665C203.05 152.225 203.905 151.055 204.955 150.155C206.005 149.225 207.205 148.55 208.555 148.13C209.905 147.68 211.285 147.455 212.695 147.455C214.285 147.455 215.725 147.695 217.015 148.175C218.335 148.655 219.46 149.315 220.39 150.155C221.35 150.995 222.085 152 222.595 153.17C223.135 154.34 223.405 155.615 223.405 156.995C223.405 158.015 223.12 158.795 222.55 159.335C221.98 159.875 221.185 160.22 220.165 160.37L209.05 162.035C209.38 163.025 210.055 163.775 211.075 164.285C212.095 164.765 213.265 165.005 214.585 165.005C215.815 165.005 216.97 164.855 218.05 164.555C219.16 164.225 220.06 163.85 220.75 163.43C221.23 163.73 221.635 164.15 221.965 164.69C222.295 165.23 222.46 165.8 222.46 166.4C222.46 167.75 221.83 168.755 220.57 169.415C219.61 169.925 218.53 170.27 217.33 170.45C216.13 170.63 215.005 170.72 213.955 170.72ZM212.695 153.035C211.975 153.035 211.345 153.155 210.805 153.395C210.295 153.635 209.875 153.95 209.545 154.34C209.215 154.7 208.96 155.12 208.78 155.6C208.63 156.05 208.54 156.515 208.51 156.995L216.205 155.735C216.115 155.135 215.785 154.535 215.215 153.935C214.645 153.335 213.805 153.035 212.695 153.035Z" fill="white"/>
</g>
<defs>
<filter id="filter0_dd_1_4" x="76.3779" y="140.255" width="151.027" height="38.51" filterUnits="userSpaceOnUse" color-interpolation-filters="sRGB">
<feFlood flood-opacity="0" result="BackgroundImageFix"/>
<feColorMatrix in="SourceAlpha" type="matrix" values="0 0 0 0 0 0 0 0 0 0 0 0 0 0 0 0 0 0 127 0" result="hardAlpha"/>
<feOffset dy="4"/>
<feGaussianBlur stdDeviation="2"/>
<feComposite in2="hardAlpha" operator="out"/>
<feColorMatrix type="matrix" values="0 0 0 0 0 0 0 0 0 0 0 0 0 0 0 0 0 0 0.25 0"/>
<feBlend mode="normal" in2="BackgroundImageFix" result="effect1_dropShadow_1_4"/>
<feColorMatrix in="SourceAlpha" type="matrix" values="0 0 0 0 0 0 0 0 0 0 0 0 0 0 0 0 0 0 127 0" result="hardAlpha"/>
<feOffset dy="4"/>
<feGaussianBlur stdDeviation="2"/>
<feComposite in2="hardAlpha" operator="out"/>
<feColorMatrix type="matrix" values="0 0 0 0 0 0 0 0 0 0 0 0 0 0 0 0 0 0 0.25 0"/>
<feBlend mode="normal" in2="effect1_dropShadow_1_4" result="effect2_dropShadow_1_4"/>
<feBlend mode="normal" in="SourceGraphic" in2="effect2_dropShadow_1_4" result="shape"/>
</filter>
</defs>
</svg>
